<svg xmlns="http://www.w3.org/2000/svg" width="136.442" height="23.025" viewBox="0 0 136.442 23.025">
  <g id="Group_4604" data-name="Group 4604" transform="translate(0 0.5)">
    <g id="Group_4559" data-name="Group 4559" transform="translate(0 0)">
      <path id="Path_4013" data-name="Path 4013" d="M22.815,72.536l-7.907-.257a.315.315,0,0,1-.273-.2l-2.774-7.542a.3.3,0,0,0-.563,0L8.525,72.081a.315.315,0,0,1-.273.2l-7.931.257a.3.3,0,0,0-.174.53L6.6,78.034a.29.29,0,0,1,.1.323L4.336,85.949a.3.3,0,0,0,.455.339l6.623-4.578a.331.331,0,0,1,.348,0l6.623,4.578a.3.3,0,0,0,.455-.339L16.5,78.357a.29.29,0,0,1,.1-.323l6.458-4.968a.3.3,0,0,0-.24-.53Z" transform="translate(-0.036 -64.338)" fill="#fdd000"/>
      <path id="Path_4014" data-name="Path 4014" d="M56.865,72.536l-7.956-.257a.315.315,0,0,1-.273-.2l-2.774-7.542a.3.3,0,0,0-.563,0l-2.782,7.542a.306.306,0,0,1-.265.2l-7.932.257a.3.3,0,0,0-.174.53L40.6,78.034a.29.29,0,0,1,.1.323l-2.343,7.592a.3.3,0,0,0,.455.339L45.44,81.71a.331.331,0,0,1,.348,0l6.623,4.578a.3.3,0,0,0,.455-.339l-2.384-7.592a.29.29,0,0,1,.1-.323l6.458-4.968a.3.3,0,0,0-.174-.53Z" transform="translate(-5.885 -64.338)" fill="#fdd000"/>
      <path id="Path_4015" data-name="Path 4015" d="M90.93,72.536,83,72.28a.315.315,0,0,1-.273-.2l-2.774-7.542a.3.3,0,0,0-.563,0l-2.782,7.542a.306.306,0,0,1-.265.2l-7.932.257a.3.3,0,0,0-.174.53l6.458,4.968a.29.29,0,0,1,.1.323l-2.343,7.592a.3.3,0,0,0,.455.339L79.53,81.71a.331.331,0,0,1,.348,0L86.5,86.288a.3.3,0,0,0,.455-.339L84.58,78.357a.29.29,0,0,1,.1-.323l6.458-4.968a.3.3,0,0,0-.207-.53Z" transform="translate(-11.752 -64.338)" fill="#fdd000"/>
      <path id="Path_4016" data-name="Path 4016" d="M124.99,72.536l-7.931-.257a.315.315,0,0,1-.273-.2l-2.774-7.542a.3.3,0,0,0-.563,0l-2.782,7.542a.306.306,0,0,1-.265.2l-7.931.257a.3.3,0,0,0-.174.53l6.458,4.968a.29.29,0,0,1,.1.323l-2.343,7.592a.3.3,0,0,0,.455.339l6.623-4.578a.331.331,0,0,1,.348,0l6.623,4.578a.3.3,0,0,0,.455-.339l-2.426-7.592a.29.29,0,0,1,.1-.323l6.458-4.968a.3.3,0,0,0-.157-.53Z" transform="translate(-17.613 -64.338)" fill="#fdd000"/>
      <path id="Path_4017" data-name="Path 4017" d="M159.05,72.536l-7.931-.257a.315.315,0,0,1-.273-.2l-2.774-7.542a.3.3,0,0,0-.563,0l-2.782,7.542a.306.306,0,0,1-.265.2l-7.931.257a.3.3,0,0,0-.174.53l6.458,4.968a.29.29,0,0,1,.1.323l-2.343,7.592a.3.3,0,0,0,.455.339l6.623-4.578a.315.315,0,0,1,.339,0l6.623,4.578a.3.3,0,0,0,.455-.339l-2.343-7.592a.29.29,0,0,1,.1-.323l6.458-4.968a.3.3,0,0,0-.232-.53Z" transform="translate(-23.473 -64.338)" fill="none" stroke="#fdd000" stroke-width="1"/>
    </g>
    <path id="Path_4020" data-name="Path 4020" d="M327.59,684.04a.3.3,0,0,0-.174.529l6.458,4.968a.287.287,0,0,1,.1.327l-2.343,7.592a.3.3,0,0,0,.455.34l2.755-1.9V683.8Z" transform="translate(-214.713 -675.506)" fill="#fdd000"/>
  </g>
</svg>
